<?xml version="1.0" standalone="no"?>
<!DOCTYPE svg PUBLIC "-//W3C//DTD SVG 20010904//EN"
 "http://www.w3.org/TR/2001/REC-SVG-20010904/DTD/svg10.dtd">
<svg version="1.0" xmlns="http://www.w3.org/2000/svg"
 width="24px" height="24px" viewBox="0 0 720.000000 720.000000"
 preserveAspectRatio="xMidYMid meet">
<metadata>
Created by potrace 1.10, written by Peter Selinger 2001-2011
</metadata>
<g transform="translate(0.000000,720.000000) scale(0.100000,-0.100000)"
fill="#3068f0" stroke="none">
<path d="M3355 7140 c-22 -5 -89 -12 -150 -15 -60 -4 -124 -11 -142 -16 -17
-6 -62 -14 -100 -19 -87 -11 -166 -28 -223 -46 -25 -8 -56 -14 -70 -14 -14 -1
-36 -7 -50 -15 -14 -8 -38 -15 -55 -15 -16 0 -39 -7 -49 -15 -11 -8 -31 -15
-45 -15 -14 0 -35 -7 -45 -15 -11 -8 -31 -15 -45 -15 -14 0 -35 -7 -45 -15
-11 -8 -28 -15 -37 -15 -10 0 -30 -6 -46 -14 -15 -8 -46 -22 -68 -32 -22 -9
-52 -23 -67 -31 -14 -7 -33 -13 -41 -13 -8 0 -20 -7 -27 -15 -7 -8 -20 -15
-30 -15 -10 0 -23 -7 -30 -15 -7 -8 -20 -15 -30 -15 -10 0 -23 -7 -30 -15 -7
-8 -21 -15 -31 -15 -11 0 -19 -4 -19 -9 0 -5 -12 -14 -27 -20 -32 -13 -100
-51 -161 -92 -24 -16 -46 -29 -49 -29 -3 0 -22 -13 -43 -30 -21 -16 -41 -30
-44 -30 -7 0 -206 -147 -216 -160 -3 -3 -27 -24 -55 -45 -119 -95 -355 -331
-450 -450 -21 -28 -42 -52 -45 -55 -13 -10 -160 -209 -160 -216 0 -3 -13 -23
-30 -44 -16 -21 -30 -40 -30 -43 0 -3 -13 -25 -29 -49 -37 -55 -78 -126 -91
-158 -6 -13 -14 -27 -18 -30 -4 -3 -22 -36 -40 -75 -19 -38 -38 -77 -43 -85
-5 -8 -12 -22 -15 -30 -13 -37 -60 -144 -80 -183 -8 -16 -14 -36 -14 -46 0 -9
-7 -26 -15 -37 -8 -10 -15 -28 -15 -39 0 -11 -7 -33 -15 -49 -8 -15 -15 -36
-15 -45 0 -9 -7 -29 -15 -45 -8 -15 -15 -40 -15 -55 0 -14 -7 -39 -15 -55 -8
-15 -15 -38 -15 -50 0 -11 -6 -41 -14 -66 -18 -57 -35 -136 -46 -223 -5 -38
-13 -83 -19 -100 -5 -18 -12 -91 -15 -163 -4 -72 -11 -146 -16 -165 -13 -45
-13 -324 0 -369 6 -19 13 -93 16 -165 3 -71 11 -146 17 -165 5 -19 14 -64 18
-100 10 -80 26 -161 45 -220 8 -25 14 -56 14 -70 1 -14 7 -36 15 -50 8 -14 15
-38 15 -55 0 -16 7 -39 15 -49 8 -11 15 -32 15 -46 0 -14 7 -35 15 -46 8 -10
15 -30 15 -44 0 -14 7 -34 15 -44 8 -11 15 -28 15 -37 0 -10 6 -30 14 -46 8
-15 21 -44 29 -63 32 -74 50 -116 59 -130 4 -8 11 -22 14 -30 21 -50 47 -101
55 -106 5 -3 9 -14 9 -25 0 -10 4 -19 9 -19 5 0 14 -12 20 -28 13 -31 51 -99
92 -160 16 -24 29 -46 29 -49 0 -3 14 -22 30 -43 17 -21 30 -41 30 -44 0 -7
147 -206 160 -216 3 -3 24 -27 45 -55 99 -123 329 -353 450 -450 28 -21 52
-42 55 -45 17 -20 294 -220 305 -220 2 0 23 -13 47 -29 61 -41 129 -79 161
-92 15 -6 27 -15 27 -20 0 -5 8 -9 19 -9 10 0 24 -7 31 -15 7 -8 21 -15 31
-15 10 0 20 -4 23 -9 6 -8 42 -26 136 -67 19 -9 48 -22 63 -30 16 -8 37 -14
47 -14 9 0 23 -7 30 -15 7 -8 22 -15 34 -15 12 0 31 -7 42 -15 10 -8 31 -15
45 -15 14 0 34 -7 45 -15 10 -8 31 -15 45 -15 14 0 34 -7 45 -15 10 -8 33 -15
49 -15 17 0 41 -7 55 -15 14 -8 36 -14 50 -15 14 0 45 -6 70 -14 57 -18 136
-35 223 -46 38 -5 83 -13 100 -19 18 -5 88 -12 156 -15 69 -3 152 -11 185 -17
98 -17 557 5 681 33 27 6 77 15 110 19 79 10 159 27 215 45 25 8 56 14 70 14
14 1 36 7 50 15 14 8 37 14 51 15 15 0 40 7 55 15 16 8 38 15 49 15 11 0 29 7
39 15 11 8 31 15 45 15 14 0 35 7 45 15 11 8 28 15 37 15 10 0 30 6 46 14 15
8 46 22 68 32 22 9 52 23 67 31 14 7 33 13 41 13 8 0 20 7 27 15 7 8 20 15 30
15 10 0 23 7 30 15 7 8 20 15 30 15 10 0 23 7 30 15 7 8 21 15 31 15 11 0 19
4 19 9 0 5 12 14 28 20 31 13 99 51 160 92 24 16 46 29 49 29 3 0 22 13 43 30
21 16 41 30 44 30 7 0 206 147 216 160 3 3 27 24 55 45 119 95 355 331 450
450 21 28 42 52 45 55 13 10 160 209 160 216 0 3 14 23 30 44 17 21 30 40 30
43 0 3 13 25 29 49 41 61 79 129 92 160 6 16 15 28 20 28 5 0 9 9 9 19 0 11 4
22 9 25 5 4 19 27 31 54 12 26 26 54 31 62 5 8 12 22 15 30 13 37 60 144 80
183 8 16 14 36 14 46 0 9 7 26 15 37 8 10 15 28 15 39 0 11 7 33 15 49 8 15
15 36 15 45 0 9 7 29 15 45 8 15 15 40 15 55 1 14 7 37 15 51 8 14 14 36 15
50 0 14 6 45 14 70 18 57 35 136 46 223 5 38 13 83 19 100 5 18 12 84 16 147
3 63 10 135 15 160 12 58 12 352 0 410 -5 25 -12 97 -16 160 -3 63 -13 140
-20 170 -8 30 -14 75 -14 100 0 25 -4 50 -10 56 -5 5 -14 37 -19 69 -10 65
-27 133 -43 180 -6 17 -13 46 -15 65 -3 19 -10 41 -16 48 -5 7 -13 29 -17 50
-10 44 -28 97 -46 134 -8 14 -14 33 -14 41 0 9 -6 28 -14 44 -15 29 -38 82
-64 143 -8 19 -19 42 -24 50 -4 8 -11 22 -14 30 -21 50 -47 101 -55 106 -5 3
-9 14 -9 25 0 10 -4 19 -9 19 -5 0 -14 12 -20 28 -13 31 -51 99 -92 160 -16
24 -29 46 -29 49 0 3 -13 22 -30 43 -16 21 -30 41 -30 44 0 7 -147 206 -160
216 -3 3 -24 27 -45 55 -95 119 -331 355 -450 450 -28 21 -52 42 -55 45 -10
13 -209 160 -216 160 -3 0 -23 14 -44 30 -21 17 -40 30 -43 30 -3 0 -25 13
-49 29 -61 41 -129 79 -160 92 -16 6 -28 15 -28 20 0 5 -9 9 -19 9 -11 0 -22
4 -25 9 -4 5 -27 19 -54 31 -26 12 -54 26 -62 31 -8 5 -22 12 -30 15 -8 3 -30
12 -48 19 -18 8 -49 22 -70 31 -20 8 -50 22 -65 30 -16 8 -36 14 -46 14 -9 0
-26 7 -37 15 -10 8 -31 15 -45 15 -14 0 -34 7 -45 15 -10 8 -31 15 -45 15 -14
0 -34 7 -45 15 -10 8 -32 15 -49 15 -16 0 -41 7 -55 15 -14 8 -36 14 -50 15
-14 0 -45 6 -70 14 -56 18 -136 35 -215 45 -33 4 -83 13 -110 19 -135 30 -636
52 -730 32z m916 -2096 c41 -10 83 -23 94 -30 11 -8 27 -14 36 -14 30 0 154
-126 185 -187 l29 -58 0 -1190 0 -1190 -32 -61 c-39 -75 -126 -156 -202 -191
-116 -52 -119 -53 -1446 -53 -1325 0 -1332 1 -1445 52 -102 46 -185 137 -222
243 -16 47 -17 128 -17 1200 0 1074 1 1153 17 1200 53 149 144 230 312 275 60
16 158 18 1341 19 1151 1 1284 -1 1350 -15z m1624 -14 c7 -11 7 -2932 -1
-2939 -7 -7 -63 24 -100 57 -17 15 -55 45 -83 67 -29 22 -80 63 -114 90 -34
28 -80 63 -102 80 -40 29 -517 406 -627 496 l-38 30 0 650 0 650 38 34 c20 19
40 35 44 35 4 0 14 8 24 17 18 18 113 94 160 128 15 11 32 25 38 31 6 6 63 52
126 102 142 114 144 115 203 160 26 20 74 59 105 86 31 26 73 59 92 71 19 12
49 35 65 51 60 56 136 114 150 114 8 0 16 -4 20 -10z"/>
</g>
</svg>
