<?xml version="1.0" standalone="no"?>
<!DOCTYPE svg PUBLIC "-//W3C//DTD SVG 20010904//EN"
 "http://www.w3.org/TR/2001/REC-SVG-20010904/DTD/svg10.dtd">
<svg version="1.0" xmlns="http://www.w3.org/2000/svg"
 width="24px" height="24px" viewBox="0 0 720.000000 720.000000"
 preserveAspectRatio="xMidYMid meet">
<metadata>
Created by potrace 1.10, written by Peter Selinger 2001-2011
</metadata>
<g transform="translate(0.000000,720.000000) scale(0.100000,-0.100000)"
fill="#0391c9" stroke="none">
<path d="M3429 6986 c-4 -4 -92 -11 -195 -16 -214 -11 -313 -24 -365 -51 -20
-10 -76 -23 -125 -29 -53 -7 -107 -21 -134 -34 -25 -13 -67 -27 -94 -31 -28
-4 -77 -20 -110 -35 -34 -16 -78 -32 -99 -35 -20 -4 -40 -11 -43 -16 -8 -13
-80 -49 -99 -49 -8 0 -35 -16 -61 -35 -25 -19 -54 -35 -65 -35 -25 0 -79 -27
-79 -40 0 -5 -19 -15 -42 -21 -24 -7 -50 -20 -58 -30 -19 -22 -73 -49 -98 -49
-11 0 -22 -9 -25 -20 -3 -11 -17 -24 -33 -30 -15 -6 -41 -24 -58 -41 -17 -17
-46 -37 -63 -44 -18 -8 -33 -20 -33 -28 0 -16 -21 -27 -51 -27 -10 0 -26 -12
-36 -26 -9 -14 -27 -30 -41 -35 -13 -5 -26 -18 -29 -28 -3 -11 -16 -22 -29
-25 -13 -4 -41 -24 -62 -46 -20 -22 -42 -40 -48 -40 -7 0 -19 -11 -28 -24 -8
-14 -25 -27 -36 -31 -11 -4 -27 -20 -36 -36 -8 -16 -25 -34 -37 -40 -13 -6
-27 -20 -32 -32 -6 -12 -20 -26 -33 -32 -12 -5 -22 -17 -22 -27 0 -9 -11 -25
-25 -36 -14 -11 -25 -24 -25 -29 0 -5 -34 -45 -76 -89 -41 -43 -82 -91 -90
-106 -8 -15 -23 -32 -34 -38 -11 -6 -20 -16 -20 -23 0 -7 -18 -38 -40 -71 -22
-32 -40 -63 -40 -68 0 -4 -11 -13 -24 -17 -18 -7 -24 -19 -29 -52 -4 -32 -14
-50 -36 -69 -17 -14 -31 -32 -31 -41 0 -9 -9 -28 -20 -42 -11 -14 -20 -32 -20
-40 0 -9 -5 -19 -10 -22 -6 -4 -17 -21 -25 -38 -8 -18 -24 -45 -34 -62 -11
-16 -27 -52 -37 -80 -9 -27 -25 -60 -34 -72 -10 -13 -21 -40 -25 -60 -3 -21
-17 -54 -30 -73 -14 -21 -27 -63 -34 -104 -5 -37 -17 -76 -26 -86 -9 -10 -27
-66 -40 -124 -14 -58 -31 -118 -38 -133 -17 -33 -33 -129 -47 -278 -5 -60 -16
-150 -24 -200 -16 -109 -21 -415 -7 -505 26 -165 31 -202 41 -310 11 -106 21
-146 55 -225 7 -16 18 -64 24 -105 7 -43 20 -86 31 -102 10 -14 25 -57 31 -95
7 -37 20 -81 29 -98 10 -16 26 -55 35 -85 10 -30 28 -71 41 -90 12 -19 28 -54
35 -77 6 -23 23 -52 35 -64 13 -13 24 -32 24 -43 1 -30 61 -135 96 -170 27
-27 44 -59 44 -84 0 -10 11 -24 25 -30 14 -7 25 -20 25 -31 0 -11 11 -32 24
-48 13 -15 31 -44 41 -63 10 -19 26 -44 37 -55 10 -11 47 -54 81 -94 34 -41
72 -85 84 -98 13 -12 23 -27 23 -33 0 -5 6 -10 13 -10 13 0 70 -57 105 -107
12 -17 31 -34 41 -38 10 -3 24 -18 30 -34 7 -15 27 -35 47 -44 19 -9 34 -23
34 -31 0 -13 55 -61 70 -61 7 0 50 -36 69 -58 46 -52 98 -98 117 -103 11 -3
28 -18 37 -34 9 -15 29 -31 44 -35 16 -3 45 -19 65 -36 20 -16 48 -33 62 -39
15 -5 26 -16 26 -24 0 -9 16 -19 39 -26 21 -5 55 -24 76 -40 21 -17 46 -30 56
-30 9 0 31 -12 48 -26 17 -14 52 -32 78 -40 25 -8 61 -25 79 -39 18 -13 54
-32 80 -41 27 -9 53 -22 59 -29 5 -7 36 -18 67 -25 31 -6 68 -20 82 -31 13
-10 61 -26 106 -35 46 -8 94 -24 109 -34 15 -12 63 -25 119 -34 51 -9 126 -27
166 -40 95 -33 314 -49 671 -49 320 0 523 16 620 50 39 13 110 30 160 38 57
10 100 22 118 36 19 13 59 25 113 33 55 8 89 19 97 29 6 9 37 23 67 31 30 7
69 21 85 30 72 37 264 126 274 126 6 0 15 8 20 18 5 10 35 26 66 36 31 9 58
23 61 31 3 7 23 20 44 29 21 8 42 22 47 29 9 16 65 47 85 47 7 0 18 10 23 22
6 12 24 26 42 30 20 5 39 21 53 43 12 19 33 38 46 41 13 4 30 14 37 24 6 9 27
25 45 34 17 9 32 22 32 30 0 12 24 28 63 40 9 3 17 12 17 20 0 9 13 22 30 31
16 9 30 22 30 31 0 8 13 20 30 25 16 6 32 18 35 27 2 10 15 22 27 27 13 6 29
25 37 43 9 19 25 35 38 38 13 4 30 19 39 35 8 16 19 29 25 29 5 0 19 15 30 34
11 19 28 36 39 39 11 3 20 15 22 33 2 18 11 33 24 38 11 5 28 28 37 50 9 23
27 46 39 51 20 9 138 169 138 187 0 11 46 77 68 96 10 9 24 36 31 60 6 23 16
42 22 42 6 0 19 21 30 46 11 25 34 65 50 89 16 23 29 48 29 54 0 6 13 36 30
67 16 31 32 71 36 90 3 19 14 44 24 57 10 12 27 57 39 100 12 43 30 90 40 105
10 15 21 50 24 79 3 28 17 74 31 101 16 32 29 81 36 138 11 85 15 104 46 185
24 67 37 328 31 654 -6 314 -21 459 -51 495 -7 8 -18 60 -25 115 -8 63 -20
112 -32 132 -11 17 -26 68 -34 113 -8 47 -21 87 -29 94 -9 6 -23 40 -31 76 -9
36 -25 77 -35 92 -11 14 -25 48 -31 75 -14 55 -96 221 -122 248 -10 9 -21 30
-24 46 -3 15 -15 35 -28 43 -14 9 -27 33 -34 62 -7 27 -20 54 -31 61 -10 7
-21 25 -25 40 -3 15 -22 47 -41 70 -19 23 -34 46 -34 52 0 5 -18 31 -40 58
-23 26 -53 63 -68 82 -15 19 -37 44 -49 56 -13 12 -30 39 -38 59 -8 20 -22 36
-30 36 -8 0 -23 12 -32 27 -26 40 -51 67 -159 176 -37 37 -73 67 -80 67 -7 0
-19 12 -26 28 -7 15 -23 28 -35 30 -14 2 -25 14 -32 34 -8 21 -15 28 -26 24
-10 -4 -30 8 -54 32 -21 20 -55 51 -77 67 -21 17 -56 47 -76 68 -21 20 -45 37
-54 37 -9 0 -38 18 -64 40 -26 22 -52 40 -57 40 -5 0 -20 11 -33 25 -13 14
-32 25 -42 25 -10 0 -29 10 -42 23 -12 12 -42 29 -67 36 -24 8 -51 22 -59 31
-9 9 -39 25 -67 34 -28 9 -54 23 -56 30 -3 7 -43 28 -89 45 -45 18 -95 39
-110 47 -15 8 -51 22 -80 31 -29 8 -57 21 -63 29 -5 7 -43 20 -84 28 -40 9
-83 22 -95 30 -23 15 -96 31 -187 41 -30 3 -69 13 -85 22 -16 8 -42 19 -59 24
-58 18 -704 58 -716 45z m1507 -1591 l49 -46 2 -892 c2 -696 0 -897 -10 -916
-6 -14 -37 -39 -67 -57 l-55 -33 -1305 0 -1305 -1 -61 29 c-53 25 -64 34 -74
68 -7 21 -16 43 -21 49 -11 14 -11 1645 -1 1699 7 32 46 109 69 135 12 13 226
15 1434 13 l1297 -1 48 -47z m-2747 -2078 c16 -13 45 -27 64 -31 24 -5 56 -28
111 -81 42 -40 76 -78 76 -83 0 -5 13 -26 29 -46 17 -22 31 -54 36 -83 4 -26
15 -68 26 -95 l19 -47 -25 -86 c-14 -47 -25 -96 -25 -110 0 -13 -13 -39 -30
-57 -16 -18 -30 -36 -30 -40 0 -6 -53 -60 -128 -130 -16 -14 -69 -40 -118 -57
-116 -41 -207 -42 -294 -6 -33 14 -70 25 -83 25 -22 0 -59 27 -125 92 -60 59
-80 86 -92 123 -7 22 -24 54 -37 71 -21 29 -23 40 -23 161 0 122 1 131 25 163
14 19 30 51 35 72 20 71 159 203 232 220 24 5 52 18 63 28 26 24 60 29 173 25
81 -3 96 -6 121 -28z m1495 0 c21 -15 49 -27 61 -27 32 0 193 -131 194 -158 1
-8 15 -27 32 -43 26 -24 32 -40 39 -92 4 -35 13 -73 19 -85 14 -27 14 -127 0
-154 -6 -11 -15 -47 -19 -79 -7 -47 -15 -66 -38 -87 -16 -15 -32 -37 -36 -50
-4 -12 -11 -22 -16 -22 -5 0 -29 -18 -52 -40 -24 -22 -53 -50 -65 -61 -12 -11
-43 -26 -70 -34 -26 -7 -66 -21 -88 -30 -32 -14 -58 -16 -127 -12 -47 3 -99
12 -115 20 -15 8 -44 18 -63 22 -55 12 -195 136 -237 210 -12 22 -30 54 -40
70 -15 25 -18 54 -18 171 0 137 1 142 28 180 15 22 27 50 27 62 0 14 22 44 59
80 99 95 134 122 176 133 22 6 49 19 60 29 25 23 58 28 165 26 75 -1 90 -5
124 -29z m1498 6 c13 -12 42 -26 65 -31 65 -15 176 -113 202 -178 7 -18 23
-41 37 -53 16 -14 24 -31 24 -53 0 -18 7 -71 17 -116 15 -78 15 -87 0 -136
-10 -29 -17 -71 -17 -94 0 -33 -5 -45 -26 -58 -14 -9 -32 -30 -40 -45 -13 -26
-38 -53 -126 -133 -18 -16 -53 -35 -78 -41 -25 -7 -63 -21 -85 -30 -55 -24
-192 -17 -257 13 -26 12 -59 22 -75 22 -29 0 -36 6 -145 117 -41 41 -68 76
-68 90 0 12 -12 36 -27 54 -27 32 -28 36 -31 179 -3 144 -3 147 21 176 14 16
30 47 36 69 7 26 30 60 65 95 102 103 124 120 155 120 16 0 42 10 58 24 38 32
53 35 170 33 89 -2 105 -5 125 -24z m-2808 -1055 c27 -16 61 -28 76 -28 15 0
44 -13 65 -30 21 -16 44 -30 51 -30 28 0 194 -187 194 -219 0 -11 5 -23 11
-26 14 -10 67 51 74 86 4 16 10 29 15 29 4 0 34 25 66 56 33 31 73 62 91 70
18 8 37 23 43 33 6 13 29 24 66 31 31 7 77 23 103 37 l46 24 282 -3 c276 -3
282 -3 313 -26 17 -13 54 -27 81 -31 34 -6 55 -15 65 -30 9 -12 33 -29 54 -37
21 -9 41 -22 44 -30 3 -8 18 -22 34 -32 35 -21 95 -93 116 -139 8 -18 18 -33
21 -33 11 0 44 43 59 75 19 44 147 165 174 165 9 0 28 12 43 26 19 18 45 30
80 35 32 5 61 17 76 31 24 23 26 23 323 23 289 0 299 -1 327 -21 16 -12 48
-25 71 -29 24 -4 56 -18 72 -31 15 -14 43 -30 61 -36 57 -20 190 -168 208
-233 5 -21 20 -48 31 -60 11 -12 23 -38 27 -58 7 -48 -5 -123 -23 -142 -14
-13 -272 -15 -2274 -15 l-2259 0 -20 26 c-26 33 -27 79 -1 135 11 24 20 60 20
80 0 26 8 45 30 67 17 18 30 35 30 40 0 13 86 102 99 102 6 0 16 11 23 25 6
14 23 27 38 30 15 3 39 19 54 36 20 22 35 29 61 29 20 0 60 13 93 31 l57 30
280 -3 280 -3 49 -27z"/>
<path d="M2349 5184 c-10 -13 -10 -20 0 -36 9 -15 12 -174 10 -716 l-2 -695
23 -19 c15 -12 29 -16 39 -11 9 4 531 9 1160 9 1011 1 1145 3 1152 17 6 11 12
1003 9 1449 0 17 -67 18 -1189 18 -1074 0 -1190 -1 -1202 -16z m1276 -154 c10
-11 40 -27 66 -34 36 -11 62 -30 112 -82 65 -67 66 -68 82 -157 15 -83 15 -95
0 -165 -12 -54 -27 -88 -49 -115 -60 -75 -110 -119 -150 -133 -22 -8 -47 -21
-56 -29 -8 -7 -43 -17 -78 -21 -56 -6 -67 -4 -93 15 -16 12 -49 29 -72 37 -47
17 -119 82 -148 134 -10 19 -29 48 -41 63 -20 25 -23 39 -23 137 0 106 1 111
27 134 14 14 31 41 38 61 6 19 15 35 20 35 5 0 27 18 50 40 23 22 49 40 58 40
9 0 44 14 77 30 75 37 152 41 180 10z m-177 -812 c34 -33 62 -65 62 -70 0 -4
11 -8 24 -8 18 0 41 19 83 65 49 55 64 65 100 71 89 13 184 -30 285 -128 44
-43 60 -67 67 -100 6 -24 19 -61 31 -83 26 -51 25 -68 -4 -102 l-24 -28 -526
-3 c-619 -3 -566 -14 -566 117 0 74 2 82 33 121 49 64 104 118 137 135 16 8
38 24 48 35 20 21 79 37 147 39 36 1 46 -5 103 -61z"/>
</g>
</svg>
